<?xml version="1.0" encoding="UTF-8" standalone="no"?>
<!-- Created with Inkscape (http://www.inkscape.org/) -->

<svg
   version="1.1"
   id="svg1"
   width="800"
   height="800"
   viewBox="0 0 800 800"
   sodipodi:docname="uad-logo.svg"
   inkscape:export-filename="uad-logo.eps.svg"
   inkscape:export-xdpi="96"
   inkscape:export-ydpi="96"
   inkscape:version="1.4 (e7c3feb100, 2024-10-09)"
   xmlns:inkscape="http://www.inkscape.org/namespaces/inkscape"
   xmlns:sodipodi="http://sodipodi.sourceforge.net/DTD/sodipodi-0.dtd"
   xmlns="http://www.w3.org/2000/svg"
   xmlns:svg="http://www.w3.org/2000/svg">
  <defs
     id="defs1" />
  <sodipodi:namedview
     id="namedview1"
     pagecolor="#ffffff"
     bordercolor="#000000"
     borderopacity="0.25"
     inkscape:showpageshadow="2"
     inkscape:pageopacity="0.0"
     inkscape:pagecheckerboard="0"
     inkscape:deskcolor="#d1d1d1"
     inkscape:zoom="1.45"
     inkscape:cx="399.65517"
     inkscape:cy="400"
     inkscape:window-width="2560"
     inkscape:window-height="1371"
     inkscape:window-x="0"
     inkscape:window-y="0"
     inkscape:window-maximized="1"
     inkscape:current-layer="g1">
    <inkscape:page
       x="0"
       y="0"
       inkscape:label="1"
       id="page1"
       width="800"
       height="800"
       margin="0"
       bleed="0" />
  </sodipodi:namedview>
  <g
     id="g1"
     inkscape:groupmode="layer"
     inkscape:label="1">
    <path
       id="path1"
       d="M 0.078125,-0.078125 H 6000.0781 V 5999.9219 H 0.078125 Z"
       style="fill:#ffffff;fill-opacity:1;fill-rule:nonzero;stroke:#000000;stroke-width:0.16446;stroke-linecap:butt;stroke-linejoin:miter;stroke-miterlimit:4;stroke-dasharray:none;stroke-opacity:1"
       transform="matrix(0.13333333,0,0,-0.13333333,0,800)" />
    <path
       id="path2"
       d="m 5278.05,3228.4 -184.22,-506.25 c -93.95,-258.6 -297.27,-468.75 -551.64,-574.18 l -93.95,258.4 c 178.6,77.42 320.51,226.05 387.46,409.84 l 184.18,506.25 c 36.84,101.56 -7.07,181.09 -27.77,210.74 -20.78,29.65 -80.47,98.36 -188.83,98.36 h -767.3 l -17.23,-47.11 -266.29,-732.11 h -292.58 l 322.62,886.06 61.8,168.12 h 958.98 c 164.69,0 319.49,-80.5 413.87,-215.47 94.53,-134.92 117.34,-307.69 60.9,-462.65 m -1175.51,126.87 43.4,119.22 h 657.34 c 33.09,0 52.03,-19.65 60.08,-31.25 7.93,-11.56 20.16,-35.94 8.79,-66.95 l -184.22,-506.25 c -50.94,-140.43 -158.24,-254.3 -293.75,-315.59 l -226.64,622.89 -65,177.93 m 7.07,-1282.34 -126.25,347.42 h -847.93 l -126.41,-347.42 h -292.69 l 667.46,1833.75 h 292.89 l -3.75,-10 -43.79,-120.16 -143.63,-394.14 0.27,-0.19 -250.23,-686.92 h 626.91 l 156.72,430.67 383.28,-1053.01 h -292.85 m -933.32,0 10.39,28.67 v 0.24 l 58.75,161.4 h 627.93 l 69.18,-190.27 h -766.25 m 2169.69,1708.05 c -123.87,176.95 -326.76,282.57 -542.7,282.57 h -935.19 v 0.2 H 3273.83 L 2492.11,1915.86 h 2134.57 l -30.82,84.61 c 297.5,121.37 535.7,366.05 645.74,667.89 l 184.22,506.25 c 26.64,73.63 39.77,150.23 39.77,226.41 0,134.33 -40.59,267.46 -119.61,380"
       style="fill:#1a1a1a;fill-opacity:1;fill-rule:nonzero;stroke:none"
       transform="matrix(0.13333333,0,0,-0.13333333,0,800)" />
    <path
       id="path3"
       d="m 3942.54,2072.93 h -766.25 l 10.39,28.67 v 0.24 l 58.75,161.4 h 627.93 l 69.18,-190.31"
       style="fill:#8fef95;fill-opacity:1;fill-rule:nonzero;stroke:none"
       transform="matrix(0.13333333,0,0,-0.13333333,0,800)" />
    <path
       id="path4"
       d="m 5278.05,3228.4 -184.22,-506.25 c -85,-233.87 -259.34,-428.05 -480.04,-540.98 -23.36,-12.22 -47.15,-23.16 -71.6,-33.2 l -93.95,258.4 c 24.3,10.62 47.93,22.42 70.63,35.58 145.19,82.85 258.9,215.43 316.83,374.26 l 184.18,506.25 c 36.84,101.56 -7.07,181.09 -27.77,210.74 -20.78,29.65 -80.47,98.36 -188.83,98.36 h -767.3 l -17.23,-47.11 -237.89,-653.55 -28.4,-78.56 h -292.58 l 28.6,78.56 294.02,807.5 61.8,168.12 h 958.98 c 164.69,0 319.49,-80.5 413.87,-215.47 94.53,-134.92 117.34,-307.69 60.9,-462.65"
       style="fill:#8fef95;fill-opacity:1;fill-rule:nonzero;stroke:none"
       transform="matrix(0.13333333,0,0,-0.13333333,0,800)" />
    <path
       id="path5"
       d="m 4402.46,2072.93 h -292.85 l -126.25,347.42 h -847.93 l -126.41,-347.42 h -292.69 l 667.46,1833.75 h 292.89 l -3.75,-10 -43.79,-120.16 -143.63,-394.14 0.27,-0.19 -250.23,-686.92 h 626.91 l 156.72,430.67 383.28,-1053.01"
       style="fill:#ff5252;fill-opacity:1;fill-rule:nonzero;stroke:none"
       transform="matrix(0.13333333,0,0,-0.13333333,0,800)" />
    <path
       id="path6"
       d="m 2270.51,2539.61 c -106.06,-293.16 -378.6,-487.77 -678.13,-484.14 l -423.24,5.08 c -163.87,1.95 -316.679,87.57 -408.91,228.94 -32.691,49.89 -56.558,105 -71.128,164.03 l -2.192,8.39 c -23.789,103.25 -17.34,209.89 18.399,308.99 l 443.911,380.47 -118.4,-326.76 -57.539,-159.26 c -36.172,-99.33 4.297,-177.81 23.399,-207.15 19.14,-29.18 74.53,-97.22 176.02,-98.47 l 423.16,-5.12 c 179.53,-2.15 343.16,114.57 406.91,290.55 l 463.99,1282.5 304.88,-3.68 -501.13,-1384.37 M 1434.8,3939.65 v 0 m 188.64,137.58 -581.56,6.99 -142.15,-381.68 -63.91,-179.02 c 0,0 -118.32,-317.62 -175.859,-476.8 -22.07,-61.13 -52.973,-131.76 -72.07,-193.52 -16.762,-54.14 -32.231,-97.26 -41.68,-153.28 -8.012,-47.07 -12.621,-95.08 -11.68,-142.85 0.629,-29.49 4.649,-58.91 10.668,-87.66 7.223,-35 11.91,-47.69 30.11,-102.69 18.211,-55.27 42.972,-107.62 74.652,-156.1 C 766.641,2031.68 960,1923.4 1167.46,1920.9 l 423.24,-5.08 c 355.43,-4.3 678.91,226.64 804.69,574.41 l 569.02,1571.1 -589.21,7.07 -497.31,-1373.87 c -43.91,-121.33 -156.68,-201.8 -280.39,-200.27 l -109.69,0.31 -313.43,4.77 c -37.39,0.46 -58.17,23.86 -67.31,37.73 -9.06,13.87 -22.19,42.34 -9.06,78.87 l 91.52,252.26 102.07,281.45 136.1,386.52"
       style="fill:#000000;fill-opacity:1;fill-rule:nonzero;stroke:none"
       transform="matrix(0.13333333,0,0,-0.13333333,0,800)" />
    <path
       id="path7"
       d="M 2771.64,3923.01 2270.51,2538.63 c -106.06,-293.12 -378.6,-487.77 -678.13,-484.14 l -423.24,5.08 c -163.87,1.95 -316.679,87.58 -408.91,228.95 -32.691,49.84 -56.558,105 -71.128,164.02 l -2.192,8.4 c -23.789,103.2 -17.34,209.88 18.399,308.98 l 113.832,314.42 310.349,858.04 305.31,-3.67 -310.78,-858.01 -150.739,-416.32 c -36.172,-99.3 4.297,-177.82 23.399,-207.15 19.14,-29.18 74.53,-97.27 176.02,-98.48 l 423.16,-5.12 c 179.53,-2.15 343.16,114.61 406.91,290.55 l 463.99,1282.54 304.88,-3.71"
       style="fill:#ff5252;fill-opacity:1;fill-rule:nonzero;stroke:none"
       transform="matrix(0.13333333,0,0,-0.13333333,0,800)" />
  </g>
</svg>
